<?xml version="1.0" standalone="no"?>
<!DOCTYPE svg PUBLIC "-//W3C//DTD SVG 20010904//EN"
 "http://www.w3.org/TR/2001/REC-SVG-20010904/DTD/svg10.dtd">
<svg version="1.0" xmlns="http://www.w3.org/2000/svg"
 width="1000.000000pt" height="1027.000000pt" viewBox="0 0 1000.000000 1027.000000"
 preserveAspectRatio="xMidYMid meet">
<metadata>
Created by potrace 1.16, written by Peter Selinger 2001-2019
</metadata>
<g transform="translate(0.000000,1027.000000) scale(0.100000,-0.100000)"
fill="#000000" stroke="none">
<path d="M5143 10010 c76 -70 111 -123 138 -211 77 -248 -93 -513 -359 -560
-128 -23 -279 28 -378 127 -30 30 -54 50 -54 45 0 -22 40 -100 76 -147 190
-251 555 -275 776 -51 240 243 169 666 -137 812 -38 18 -83 36 -100 40 -26 6
-22 0 38 -55z"/>
<path d="M4744 9909 l-42 -41 -44 26 c-65 38 -71 33 -41 -29 l27 -55 -44 -46
-45 -46 66 6 65 7 24 -50 c13 -28 27 -51 31 -51 4 0 10 19 14 43 12 75 12 75
71 83 30 3 56 9 59 13 2 4 -21 20 -51 34 -61 30 -57 19 -38 117 8 40 -3 38
-52 -11z"/>
<path d="M2304 9278 c-203 -192 -276 -428 -204 -662 l22 -68 -94 -97 c-51 -53
-124 -130 -160 -171 l-67 -75 26 65 c58 144 75 226 80 385 6 160 -4 225 -48
324 l-20 46 -40 -45 c-150 -170 -229 -359 -231 -550 -1 -120 15 -192 68 -299
l43 -84 -83 -121 c-46 -67 -102 -154 -126 -194 -23 -40 -44 -71 -46 -70 -1 2
4 30 11 62 40 172 40 365 0 521 -18 69 -63 169 -92 204 l-20 24 -37 -61 c-51
-85 -92 -178 -118 -269 -26 -93 -31 -266 -9 -353 19 -79 75 -192 126 -255 l44
-54 -56 -118 c-31 -65 -73 -161 -93 -213 l-37 -95 -6 170 c-5 184 -21 263 -78
400 -28 67 -122 205 -145 212 -13 4 -69 -139 -88 -227 -60 -276 12 -532 195
-693 40 -34 57 -57 53 -67 -14 -37 -59 -217 -85 -340 -22 -105 -28 -125 -28
-88 -1 60 -36 239 -60 310 -51 147 -150 303 -244 382 -58 48 -59 47 -81 -74
-29 -157 -16 -329 34 -463 49 -131 180 -281 291 -333 38 -18 40 -21 35 -54 -2
-19 -10 -125 -17 -235 l-13 -200 -32 97 c-62 184 -143 320 -259 433 -71 70
-180 144 -192 131 -13 -13 -15 -127 -4 -222 24 -201 106 -373 232 -488 60 -54
160 -113 230 -135 l36 -12 7 -107 c6 -100 28 -278 42 -347 4 -18 -10 2 -33 47
-118 227 -269 387 -448 475 -33 17 -73 33 -89 37 l-29 7 6 -63 c10 -101 44
-216 94 -318 57 -114 165 -234 265 -293 66 -40 200 -87 246 -87 26 0 28 -4 51
-100 13 -55 43 -159 67 -232 24 -72 39 -127 35 -122 -4 5 -28 36 -53 69 -70
92 -225 234 -315 288 -86 52 -194 93 -267 103 -56 8 -57 5 -20 -98 117 -327
344 -516 654 -544 l75 -7 105 -212 105 -213 -71 68 c-176 167 -398 274 -597
287 -66 5 -87 3 -87 -7 0 -26 73 -149 135 -228 101 -127 226 -216 370 -263 58
-19 94 -23 212 -24 l143 -1 68 -101 c38 -55 99 -140 137 -189 51 -67 61 -84
39 -69 -238 159 -403 217 -621 219 -148 1 -167 -5 -139 -49 99 -151 299 -304
456 -349 134 -39 302 -39 410 -1 l41 15 167 -169 167 -168 -88 39 c-196 85
-387 120 -549 100 -97 -12 -153 -25 -178 -42 -12 -9 -5 -19 40 -61 128 -117
280 -203 416 -235 146 -34 321 -18 455 42 l57 26 104 -79 c56 -44 141 -106
188 -138 47 -32 89 -62 94 -66 5 -4 -26 3 -68 17 -136 43 -246 57 -401 51 -88
-3 -160 -11 -195 -22 -72 -22 -170 -66 -170 -76 0 -28 193 -137 318 -180 92
-31 105 -33 242 -33 132 0 152 2 227 27 45 15 111 47 147 71 l64 43 49 -30
c26 -17 120 -68 208 -114 l160 -83 -65 7 c-36 5 -137 7 -225 7 -173 -1 -260
-17 -374 -69 -63 -29 -151 -86 -151 -98 0 -16 172 -89 267 -113 125 -32 293
-33 407 -4 98 25 197 77 269 141 l56 49 123 -49 c68 -26 170 -64 227 -82 l104
-34 -139 -6 c-212 -9 -366 -50 -504 -134 -59 -36 -150 -111 -150 -124 0 -13
123 -50 223 -67 109 -19 278 -14 372 12 111 29 212 90 304 181 l84 84 106 -25
c136 -32 287 -61 426 -82 61 -9 114 -18 118 -21 5 -3 -45 -26 -110 -53 -145
-58 -288 -129 -434 -216 -139 -83 -152 -95 -144 -137 8 -36 42 -97 55 -97 4 0
64 42 133 94 231 173 562 350 657 350 95 0 426 -177 657 -350 69 -52 129 -94
133 -94 16 0 50 69 53 106 2 38 2 38 -98 101 -135 85 -327 183 -475 242 -67
27 -118 51 -113 54 4 3 58 12 118 21 139 21 290 50 426 82 l106 25 84 -84 c92
-91 193 -152 304 -181 94 -26 263 -31 372 -12 100 17 223 54 223 67 0 13 -91
88 -150 124 -138 84 -292 125 -504 134 l-139 6 104 34 c57 18 159 56 227 82
l123 49 56 -49 c209 -187 552 -216 858 -72 47 22 85 43 85 48 0 12 -88 69
-151 98 -114 52 -201 68 -374 69 -88 0 -189 -2 -225 -7 l-65 -7 160 83 c88 46
182 97 208 114 l49 30 64 -43 c36 -24 102 -56 147 -71 75 -25 95 -27 227 -27
137 0 150 2 242 33 125 43 318 152 318 180 0 10 -98 54 -170 76 -35 11 -107
19 -195 22 -155 6 -265 -8 -401 -51 -42 -14 -73 -21 -68 -17 5 4 47 34 94 66
47 32 132 94 188 138 l104 79 57 -26 c134 -60 309 -76 455 -42 136 32 288 118
416 235 45 42 52 52 40 61 -25 17 -81 30 -178 42 -162 20 -353 -15 -549 -100
l-88 -39 167 168 167 169 41 -15 c108 -38 276 -38 410 1 157 45 357 198 456
349 28 44 9 50 -139 49 -218 -2 -383 -60 -621 -219 -22 -15 -12 2 39 69 38 49
99 134 137 189 l68 101 143 1 c118 1 154 5 212 24 144 47 269 136 370 263 62
79 135 202 135 228 0 10 -21 12 -87 7 -199 -13 -421 -120 -597 -287 l-71 -68
105 213 105 212 75 7 c310 28 537 217 654 544 37 103 36 106 -20 98 -73 -10
-181 -51 -267 -103 -90 -54 -245 -196 -315 -288 -25 -33 -49 -64 -53 -69 -4
-5 11 50 35 122 24 73 54 177 67 232 23 96 25 100 51 100 46 0 180 47 246 87
100 59 208 179 265 293 50 102 84 217 94 318 7 75 6 76 -97 26 -190 -91 -341
-248 -463 -482 -23 -45 -37 -65 -33 -47 14 69 36 247 42 347 l7 107 36 12 c70
22 170 81 230 135 126 115 208 287 232 488 11 95 9 209 -4 222 -12 13 -121
-61 -192 -131 -116 -113 -197 -249 -259 -433 l-32 -97 -13 200 c-7 110 -15
216 -17 235 -5 33 -3 36 35 54 111 52 242 202 291 333 50 134 63 306 34 463
-22 121 -23 122 -81 74 -94 -79 -193 -235 -244 -382 -24 -71 -59 -250 -60
-310 0 -37 -6 -17 -28 88 -26 123 -71 303 -85 340 -4 10 13 33 53 67 183 161
255 417 195 693 -19 88 -75 231 -88 227 -23 -7 -117 -145 -145 -212 -57 -137
-73 -216 -78 -400 l-6 -170 -37 95 c-20 52 -62 148 -93 213 l-56 118 44 54
c51 63 107 176 126 255 22 87 17 260 -9 353 -26 91 -67 184 -118 269 l-37 61
-20 -24 c-29 -35 -74 -135 -92 -204 -40 -156 -40 -349 0 -521 7 -32 12 -60 11
-62 -2 -1 -23 30 -46 70 -24 40 -80 127 -126 194 l-83 121 43 84 c53 107 69
179 68 299 -2 191 -81 380 -231 550 l-40 45 -20 -46 c-44 -99 -54 -164 -48
-324 5 -159 22 -241 80 -385 l26 -65 -67 75 c-36 41 -109 118 -160 171 l-94
97 22 68 c72 234 -1 470 -204 662 -31 29 -60 51 -65 48 -17 -11 -31 -97 -31
-194 0 -162 47 -306 154 -471 35 -54 40 -68 25 -64 -14 4 -19 0 -19 -15 0 -19
-4 -18 -67 14 -138 69 -330 83 -470 34 -64 -22 -188 -92 -188 -106 0 -13 105
-62 200 -93 185 -60 377 -62 544 -4 l73 25 45 -44 c42 -40 211 -230 243 -273
13 -17 11 -16 -17 3 -50 35 -156 81 -226 97 -80 19 -215 19 -297 -1 -70 -16
-200 -72 -200 -85 0 -15 122 -91 216 -135 171 -80 349 -113 513 -94 50 6 102
15 116 20 15 6 30 10 34 10 8 0 151 -213 220 -329 l33 -54 -66 52 c-143 114
-274 157 -450 148 -102 -5 -216 -32 -223 -54 -6 -16 138 -136 232 -194 157
-97 312 -141 492 -142 l112 0 50 -111 c28 -61 61 -140 75 -176 13 -36 29 -77
34 -91 7 -18 -18 2 -76 61 -141 142 -280 196 -487 188 -61 -2 -116 -8 -123
-12 -28 -17 192 -250 304 -322 130 -83 301 -144 406 -144 42 0 50 -3 58 -24
10 -27 74 -316 85 -381 6 -39 5 -39 -36 30 -23 39 -73 100 -110 137 -82 81
-197 141 -314 163 -76 15 -185 20 -185 10 0 -3 19 -40 42 -82 92 -169 221
-310 364 -399 70 -44 217 -104 253 -104 22 0 28 -53 36 -310 5 -169 5 -173
-10 -121 -48 167 -171 318 -317 390 -85 42 -194 75 -228 69 -18 -3 -17 -8 16
-103 53 -153 125 -274 223 -377 84 -89 204 -178 269 -199 l35 -11 -6 -82 c-8
-118 -48 -357 -58 -350 -5 3 -9 17 -9 31 0 43 -30 145 -63 213 -46 95 -169
216 -267 263 -41 20 -87 39 -102 43 -26 6 -28 4 -28 -22 0 -149 83 -386 185
-529 46 -65 154 -172 204 -201 17 -10 31 -24 31 -30 0 -20 -77 -264 -109 -344
l-30 -75 -1 85 c-1 171 -51 297 -166 419 -75 79 -174 148 -195 135 -9 -5 -10
-47 -6 -158 9 -229 48 -365 152 -521 29 -44 71 -98 94 -119 l40 -39 -56 -111
c-68 -136 -144 -269 -150 -262 -2 2 0 30 6 62 37 198 -24 389 -171 539 -55 56
-81 76 -88 69 -6 -6 -20 -60 -31 -120 -29 -153 -22 -342 15 -467 30 -99 63
-170 112 -239 l34 -48 -104 -137 c-57 -76 -120 -156 -140 -178 l-36 -40 19 45
c49 120 60 290 27 405 -24 80 -80 186 -127 238 -45 49 -45 49 -85 -56 -51
-133 -66 -205 -71 -358 -5 -126 -3 -156 16 -229 12 -46 34 -112 50 -147 l30
-63 -132 -124 c-73 -68 -149 -138 -170 -156 l-38 -33 35 59 c59 99 78 165 83
294 4 87 1 132 -11 180 -19 75 -83 210 -100 210 -14 0 -95 -132 -131 -214 -14
-32 -38 -97 -52 -145 -24 -76 -26 -103 -26 -236 -1 -125 3 -160 20 -213 l21
-63 -71 -53 c-77 -56 -157 -111 -248 -169 l-57 -35 54 71 c97 129 142 290 124
447 -10 91 -48 210 -66 210 -16 0 -131 -144 -179 -222 -96 -161 -139 -322
-133 -508 l3 -114 -130 -66 c-71 -36 -162 -79 -200 -96 l-71 -31 71 72 c73 73
126 161 161 265 33 95 22 370 -14 370 -4 0 -49 -38 -99 -85 -197 -184 -304
-388 -320 -607 -3 -51 -11 -96 -17 -100 -25 -17 -395 -133 -401 -126 -2 2 26
26 63 54 117 88 201 212 237 349 18 69 21 255 4 255 -12 0 -140 -81 -184 -117
-130 -106 -245 -252 -298 -378 -20 -47 -57 -190 -57 -219 0 -6 -72 -21 -255
-51 -88 -14 -197 -36 -242 -47 l-83 -20 -83 20 c-46 12 -153 32 -238 46 -173
28 -259 45 -259 52 0 29 -37 172 -57 219 -53 126 -168 272 -298 378 -44 36
-172 117 -184 117 -17 0 -14 -186 4 -255 36 -137 120 -261 237 -349 37 -28 65
-52 63 -54 -6 -7 -376 109 -401 126 -6 4 -14 49 -17 100 -16 219 -123 423
-320 607 -50 47 -95 85 -99 85 -21 0 -32 -63 -32 -185 -1 -102 3 -142 18 -185
35 -104 88 -192 161 -265 l71 -72 -71 31 c-38 17 -128 60 -200 96 l-130 66 3
114 c6 186 -37 347 -133 508 -48 78 -163 222 -179 222 -18 0 -56 -119 -66
-210 -18 -157 27 -318 124 -447 l54 -71 -57 35 c-91 58 -171 113 -248 169
l-71 53 21 63 c17 53 21 88 20 213 0 133 -2 160 -26 236 -14 48 -38 113 -52
145 -36 82 -117 214 -131 214 -17 0 -81 -135 -100 -210 -12 -48 -15 -93 -11
-180 5 -129 25 -200 82 -295 l35 -57 -38 32 c-20 18 -96 88 -169 156 l-132
124 30 63 c16 35 38 101 50 147 19 73 21 103 16 229 -5 153 -20 225 -71 358
-40 105 -40 105 -85 56 -47 -52 -103 -158 -127 -238 -33 -115 -22 -285 27
-405 l19 -45 -36 40 c-20 22 -83 102 -140 178 l-104 137 34 48 c49 68 82 139
113 239 24 79 27 104 27 248 1 158 -20 314 -45 340 -6 6 -38 -20 -87 -70 -147
-150 -208 -341 -171 -539 6 -32 8 -60 6 -62 -6 -7 -82 126 -150 262 l-56 111
40 39 c23 21 65 75 94 119 103 155 143 292 151 515 3 87 1 151 -5 159 -15 23
-111 -41 -195 -130 -115 -122 -165 -248 -166 -419 l-1 -85 -30 75 c-32 80
-109 324 -109 344 0 6 14 20 31 30 50 29 158 136 204 201 102 143 185 380 185
529 0 26 -2 28 -27 22 -16 -4 -62 -23 -103 -43 -98 -47 -221 -168 -267 -263
-33 -68 -63 -170 -63 -213 0 -14 -4 -28 -9 -31 -10 -7 -50 232 -58 350 l-6 82
35 11 c65 21 185 110 269 199 98 103 170 224 223 377 33 95 34 100 16 103 -34
6 -143 -27 -228 -69 -146 -72 -269 -223 -317 -390 -15 -52 -15 -48 -10 121 8
257 14 310 36 310 36 0 183 60 253 104 143 89 272 230 364 399 23 42 42 79 42
82 0 10 -109 5 -185 -10 -117 -22 -232 -82 -314 -163 -37 -37 -87 -98 -110
-137 -41 -69 -42 -69 -36 -30 11 65 75 354 85 381 8 21 16 24 58 24 105 0 276
61 406 144 112 72 332 305 304 322 -7 4 -62 10 -123 12 -207 8 -346 -46 -486
-188 l-87 -87 23 61 c13 34 28 75 35 91 6 17 34 81 62 144 l51 113 61 -6 c119
-12 297 22 432 84 136 61 361 236 337 260 -20 22 -165 50 -254 50 -157 0 -280
-45 -417 -151 l-62 -49 32 52 c68 115 211 328 219 328 4 0 19 -4 34 -10 14 -5
66 -14 116 -20 164 -19 342 14 513 94 94 44 216 120 216 135 0 13 -130 69
-200 85 -82 20 -217 20 -297 1 -70 -16 -176 -62 -226 -97 -28 -19 -30 -20 -17
-3 32 43 201 233 243 273 l45 44 73 -25 c167 -58 359 -56 544 4 100 33 197 79
197 93 0 6 -27 27 -62 47 -180 109 -407 118 -595 24 -38 -19 -70 -35 -71 -35
-1 0 0 10 4 22 4 18 2 20 -15 16 -18 -5 -14 5 23 63 107 165 154 309 154 471
0 97 -14 183 -31 194 -5 3 -34 -19 -65 -48z"/>
<path d="M4705 8934 c-16 -2 -73 -9 -125 -15 -890 -101 -1744 -615 -2264
-1362 -824 -1186 -772 -2777 128 -3899 967 -1203 2652 -1563 4021 -859 194
100 309 172 475 297 721 545 1182 1358 1275 2246 17 169 20 507 5 659 -64 641
-305 1233 -705 1734 -101 127 -361 388 -485 486 -513 408 -1097 647 -1734 708
-100 10 -519 13 -591 5z m506 -114 c647 -51 1247 -288 1749 -693 112 -90 386
-368 478 -484 357 -452 587 -999 656 -1568 17 -137 32 -405 23 -405 -3 0 -245
255 -538 566 -292 311 -545 574 -563 585 -35 21 -91 24 -145 8 -28 -8 -44 -8
-69 3 -20 8 -182 162 -400 380 -325 325 -371 368 -406 374 -63 11 -94 -12
-202 -150 -71 -93 -103 -126 -119 -126 -12 0 -65 35 -121 80 -144 117 -185
117 -275 4 -28 -35 -53 -64 -56 -64 -3 0 -66 48 -141 108 -164 130 -167 131
-219 132 -56 0 -74 -17 -235 -216 -86 -107 -141 -167 -157 -171 -14 -3 -38 0
-55 7 -17 7 -53 15 -81 17 -40 3 -56 0 -82 -19 -17 -13 -287 -329 -599 -703
-311 -374 -574 -688 -584 -699 -18 -18 -21 -16 -105 58 -81 70 -91 76 -132 76
-25 0 -57 -7 -71 -16 -15 -9 -207 -220 -427 -469 -281 -318 -402 -449 -408
-440 -12 23 -55 290 -68 428 -17 182 -7 542 21 722 135 900 632 1676 1393
2176 140 92 406 229 567 292 434 170 913 242 1371 207z m805 -1293 c11 -7 154
-147 316 -312 l295 -300 -18 -30 c-20 -32 -24 -80 -10 -117 5 -13 86 -120 180
-238 124 -156 171 -222 171 -242 0 -33 -16 -53 -206 -253 -83 -88 -156 -170
-163 -182 -6 -12 -11 -37 -11 -56 0 -32 26 -60 366 -396 201 -199 371 -360
377 -358 7 2 13 11 15 19 2 9 -139 155 -353 364 -195 192 -358 357 -361 366
-3 10 -1 24 3 33 5 8 85 96 178 195 176 187 211 239 200 290 -4 17 -76 118
-161 225 -198 250 -207 263 -199 295 13 52 25 54 69 11 62 -61 122 -75 207
-50 32 10 43 9 72 -7 19 -11 283 -284 586 -607 l551 -588 -6 -82 c-42 -587
-215 -1096 -530 -1564 -504 -749 -1298 -1241 -2200 -1363 -142 -19 -400 -28
-563 -19 -908 48 -1729 473 -2302 1191 -250 313 -452 711 -557 1094 l-20 71
414 469 c228 257 425 474 439 482 17 8 35 10 50 5 13 -4 110 -84 216 -178 106
-93 204 -178 218 -187 34 -24 108 -23 146 0 17 11 176 188 355 395 259 300
330 377 349 377 13 0 52 -18 87 -40 116 -73 143 -67 245 61 39 49 73 89 75 89
3 0 28 -18 56 -41 50 -39 53 -40 119 -37 l67 3 355 -347 c196 -192 362 -348
371 -348 9 0 16 6 16 14 0 21 -695 709 -732 724 -25 11 -40 11 -75 2 -42 -12
-44 -12 -93 26 -28 21 -48 44 -46 50 2 6 181 230 396 498 278 345 399 488 416
492 34 9 55 -3 154 -85 90 -76 131 -92 173 -69 13 7 59 58 102 113 43 55 89
112 103 128 28 29 63 34 98 14z m-968 -123 c78 -63 142 -116 142 -119 0 -5
-784 -981 -818 -1017 -14 -16 -36 -28 -48 -28 -12 0 -55 20 -95 45 -74 46
-105 53 -139 35 -11 -6 -161 -173 -333 -373 -173 -199 -327 -373 -341 -387
-19 -17 -39 -25 -65 -25 -34 0 -50 11 -150 99 -99 88 -110 100 -98 115 8 9
273 327 591 707 400 480 586 696 607 704 25 11 36 10 71 -6 52 -23 107 -24
141 -1 15 9 86 91 159 181 132 163 175 201 213 189 11 -3 84 -57 163 -119z"/>
<path d="M4795 8772 c-3 -3 -5 -15 -5 -27 0 -11 -5 -26 -11 -32 -7 -7 -6 -26
5 -64 30 -99 13 -277 -35 -371 -12 -23 -24 -68 -26 -100 -5 -45 -9 -58 -22
-58 -21 1 -95 34 -130 59 -36 26 -90 34 -120 19 -32 -17 -93 -104 -89 -126 4
-17 11 -18 61 -6 36 8 66 -18 117 -107 60 -102 157 -176 253 -194 34 -7 62
-25 37 -25 -19 0 -33 -45 -21 -68 15 -27 85 -62 126 -62 29 0 34 4 40 30 4 16
4 34 1 39 -6 10 16 21 41 21 9 0 39 -24 67 -53 58 -60 125 -102 177 -112 32
-6 38 -3 55 22 57 85 -13 182 -168 232 -21 7 -38 16 -38 21 0 4 -20 30 -45 58
-44 49 -45 51 -23 57 73 20 188 83 233 128 30 30 105 180 105 210 0 7 4 17 10
23 13 13 23 191 10 199 -5 3 -7 12 -3 21 8 21 -26 124 -43 131 -8 3 -14 11
-14 18 0 8 -14 21 -32 30 -32 16 -32 16 -69 -23 -25 -27 -38 -52 -43 -81 -6
-42 -46 -128 -84 -184 l-20 -29 -6 44 c-3 23 -6 54 -6 67 0 24 -54 144 -77
171 -65 76 -92 103 -118 115 -30 13 -79 17 -90 7z m49 -70 c8 -26 15 -40 15
-31 1 9 -4 30 -10 48 -6 18 -8 35 -5 38 10 11 28 -13 36 -49 l8 -33 1 35 c1
33 2 33 19 17 13 -14 18 -41 23 -120 l5 -102 2 93 c2 91 16 123 29 62 3 -16
12 -30 19 -30 39 0 13 -133 -41 -209 l-26 -36 30 34 c17 19 38 58 47 85 19 60
31 76 39 54 7 -19 -42 -120 -81 -169 -28 -34 -28 -34 -2 -11 14 13 41 51 58
84 22 41 35 57 42 50 19 -19 -2 -60 -65 -125 -35 -36 -55 -61 -46 -56 9 5 40
34 68 65 40 46 52 54 57 41 8 -21 -52 -97 -109 -138 -22 -16 -34 -29 -28 -29
7 0 42 28 77 62 35 33 64 56 64 50 0 -25 -15 -44 -77 -97 -35 -30 -61 -55 -56
-55 5 0 37 25 71 56 88 79 77 53 -15 -37 -43 -42 -91 -90 -106 -108 -41 -46
-95 -70 -129 -58 -25 10 -26 13 -21 66 3 31 17 83 30 115 56 136 67 294 29
414 -11 32 10 28 23 -5 10 -25 11 -26 6 -3 -3 14 -9 40 -12 59 -9 50 13 31 31
-27z m447 -60 l0 -27 10 25 c9 21 12 22 19 9 6 -10 4 -36 -5 -69 -8 -30 -13
-56 -10 -58 4 -4 25 66 25 86 0 21 25 8 28 -15 4 -29 -40 -123 -78 -166 -18
-21 -25 -35 -17 -31 18 6 70 84 86 127 12 31 31 36 31 8 0 -39 -21 -72 -85
-136 -36 -37 -57 -61 -46 -56 10 6 44 38 75 72 31 35 58 60 61 57 18 -17 -15
-62 -86 -122 -44 -36 -77 -66 -73 -66 4 0 40 27 81 61 62 51 74 58 80 43 8
-21 -46 -71 -124 -116 -29 -16 -53 -32 -53 -34 0 -9 78 36 123 70 41 31 47 33
47 16 0 -24 -47 -60 -130 -99 -36 -17 -58 -31 -50 -31 8 0 48 18 88 40 47 26
72 35 72 26 0 -22 -25 -36 -117 -67 -48 -15 -81 -28 -72 -29 8 0 48 11 87 24
59 20 72 22 72 10 0 -8 -10 -19 -22 -24 -21 -8 -21 -9 -3 -10 18 -1 18 -2 4
-13 -9 -7 -14 -18 -12 -24 3 -8 -5 -13 -19 -14 -12 0 -17 -3 -10 -6 30 -12 7
-23 -50 -25 l-63 -2 54 -3 53 -4 -42 -31 c-43 -32 -43 -32 -86 -16 -54 19 -58
13 -6 -9 20 -9 32 -18 25 -20 -6 -2 -25 3 -42 11 -16 9 -34 16 -38 16 -4 -1 7
-9 26 -19 42 -22 24 -39 -19 -17 -17 8 -30 11 -30 6 0 -4 7 -10 15 -14 8 -3
15 -10 15 -16 0 -15 -27 -12 -44 6 -9 8 -16 12 -16 7 0 -5 5 -14 12 -21 9 -9
4 -12 -26 -12 l-38 0 66 -70 c36 -39 66 -74 66 -79 0 -5 28 -19 63 -30 34 -12
73 -31 87 -42 l25 -20 -25 6 c-14 3 -6 -4 18 -16 23 -12 42 -25 42 -30 0 -5
-18 0 -41 11 -23 12 -43 20 -45 17 -2 -2 14 -12 36 -22 22 -10 45 -24 51 -32
23 -26 0 -24 -53 6 -30 17 -59 31 -64 31 -5 0 18 -15 50 -33 59 -33 81 -57 53
-57 -8 0 -32 13 -53 28 -83 60 -76 46 12 -22 39 -31 33 -47 -8 -25 -13 8 -25
13 -28 14 -22 1 -106 64 -136 101 -40 48 -48 50 -124 29 -17 -5 -21 -4 -12 3
11 7 10 10 -3 16 -9 3 -23 6 -32 6 -8 0 -22 8 -31 19 -10 10 -39 24 -65 30
-117 28 -201 91 -263 196 -21 37 -51 78 -67 91 -31 26 -76 31 -95 12 -8 -8
-12 -8 -12 -1 0 6 7 16 15 23 8 7 15 23 15 36 0 13 3 23 8 22 4 -1 19 6 34 16
33 21 65 16 119 -19 20 -13 78 -39 128 -58 l91 -34 52 31 c30 17 65 50 81 74
16 24 46 54 67 68 97 64 205 233 234 366 4 18 11 25 20 22 10 -4 16 5 21 25 8
37 25 32 26 -7z"/>
<path d="M3166 5248 c-5 -34 -57 -1686 -56 -1790 l0 -58 536 0 537 0 -7 138
c-3 75 -8 227 -11 337 -3 110 -8 239 -11 286 l-5 87 73 16 c118 27 373 64 517
76 334 25 706 0 1010 -71 l93 -21 -6 -117 c-3 -64 -8 -206 -11 -316 -3 -110
-8 -248 -11 -307 l-6 -108 541 0 542 0 -5 48 c-3 26 -18 449 -33 940 l-27 892
-143 0 -143 0 0 -46 c0 -45 0 -45 -32 -42 -31 3 -33 6 -36 46 l-3 42 -130 0
-129 0 0 -45 c0 -41 -2 -45 -25 -45 -23 0 -25 4 -25 45 l0 45 -145 0 -145 0 0
-88 c0 -49 -3 -123 -6 -165 l-7 -77 -53 0 -54 0 0 60 0 60 -110 0 -110 0 0
-60 0 -60 -50 0 -50 0 0 60 0 60 -115 0 -115 0 0 -60 0 -60 -45 0 -45 0 0 60
0 60 -115 0 -115 0 0 -60 0 -60 -45 0 -45 0 0 60 0 60 -115 0 -115 0 0 -60 0
-60 -45 0 -45 0 0 60 0 60 -115 0 -115 0 0 -60 0 -60 -53 0 -54 0 -6 107 c-4
58 -7 132 -7 165 l0 58 -145 0 -145 0 0 -45 c0 -43 -1 -45 -30 -45 -29 0 -30
2 -30 45 l0 45 -129 0 -130 0 -3 -42 c-3 -39 -6 -43 -30 -46 -27 -3 -28 -2
-28 42 l0 46 -140 0 -139 0 -5 -32z m244 -53 l0 -45 70 0 70 0 0 45 0 46 88
-3 87 -3 3 -42 3 -43 75 0 74 0 0 45 0 45 100 0 100 0 0 -65 0 -65 -434 0
c-284 0 -437 4 -441 10 -4 6 -3 35 0 65 l7 55 99 0 99 0 0 -45z m2708 -2 l3
-43 64 0 64 0 3 43 3 42 88 3 87 3 0 -46 0 -45 75 0 75 0 0 45 0 45 100 0
c112 0 115 -2 108 -86 l-3 -39 -437 -3 -438 -2 0 58 c0 32 3 62 7 66 4 4 50 5
103 4 l95 -3 3 -42z m-2788 -213 l0 -110 -65 0 -65 0 0 110 0 110 65 0 65 0 0
-110z m300 0 l0 -110 -135 0 -135 0 0 110 0 110 135 0 135 0 0 -110z m310 0
l0 -111 -142 3 -143 3 -3 108 -3 107 146 0 145 0 0 -110z m144 58 c3 -29 6
-79 6 -111 l0 -58 -62 3 -63 3 -3 108 -3 107 59 0 59 0 7 -52z m1956 -58 l0
-110 -71 0 -72 0 6 83 c4 45 7 94 7 110 0 27 1 27 65 27 l65 0 0 -110z m300 0
l0 -111 -137 3 -138 3 -3 108 -3 107 141 0 140 0 0 -110z m310 0 l0 -110 -145
0 -145 0 0 110 0 110 145 0 145 0 0 -110z m142 20 c1 -49 2 -98 2 -107 1 -15
-9 -18 -61 -21 l-63 -3 0 111 0 110 60 0 60 0 2 -90z m-2372 -40 l0 -60 95 0
95 0 0 60 0 60 65 0 65 0 0 -60 0 -60 95 0 95 0 0 60 0 60 65 0 65 0 0 -60 0
-60 95 0 95 0 0 60 0 60 65 0 65 0 0 -60 0 -60 95 0 95 0 0 60 0 60 65 0 65 0
0 -60 0 -60 80 0 c64 0 80 -3 80 -15 0 -13 -103 -15 -865 -15 -762 0 -865 2
-865 15 0 12 16 15 80 15 l80 0 0 60 0 60 65 0 65 0 0 -60z m-940 -195 l0 -85
-145 0 -145 0 0 85 0 85 145 0 145 0 0 -85z m310 0 l0 -85 -145 0 -145 0 0 85
0 85 145 0 145 0 0 -85z m300 31 c0 -29 3 -68 6 -85 l7 -31 -147 0 -146 0 0
85 0 85 140 0 140 0 0 -54z m160 -31 l0 -85 -55 0 -55 0 0 33 c0 17 -3 56 -6
85 l-7 52 62 0 61 0 0 -85z m290 0 l0 -85 -135 0 -135 0 0 85 0 85 135 0 135
0 0 -85z m300 0 l0 -85 -140 0 -140 0 0 85 0 85 140 0 140 0 0 -85z m310 0 l0
-85 -145 0 -145 0 0 85 0 85 145 0 145 0 0 -85z m290 0 l0 -85 -135 0 -135 0
0 85 0 85 135 0 135 0 0 -85z m320 0 l0 -85 -150 0 -150 0 0 85 0 85 150 0
150 0 0 -85z m420 0 l0 -85 -140 0 -140 0 0 85 0 85 140 0 140 0 0 -85z m310
0 l0 -85 -140 0 -140 0 0 85 0 85 140 0 140 0 0 -85z m310 0 l0 -85 -140 0
-140 0 0 85 0 85 140 0 140 0 0 -85z m-3470 -200 l0 -95 -76 0 -77 0 6 68 c4
37 7 79 7 95 0 27 0 27 70 27 l70 0 0 -95z m300 0 l0 -95 -135 0 -135 0 0 95
0 95 135 0 135 0 0 -95z m310 0 l0 -96 -142 3 -143 3 -3 79 c-2 44 -1 85 2 93
4 10 38 13 146 13 l140 0 0 -95z m158 -3 l3 -93 -68 3 -68 3 -3 79 c-2 44 -1
85 2 93 4 10 22 13 68 11 l63 -3 3 -93z m302 3 l0 -96 -127 3 -128 3 -3 93 -3
92 131 0 130 0 0 -95z m288 -2 l3 -93 -131 0 -130 0 0 95 0 96 128 -3 127 -3
3 -92z m297 2 l0 -90 -137 -3 -138 -3 0 89 c0 49 3 92 7 96 4 3 66 5 137 4
l131 -3 0 -90z m313 -2 l3 -93 -146 0 -145 0 0 95 0 96 143 -3 142 -3 3 -92z
m290 0 l3 -93 -136 0 -135 0 0 95 0 96 133 -3 132 -3 3 -92z m260 5 l-3 -93
-117 -3 -118 -3 0 89 c0 49 3 92 7 95 3 4 58 7 120 7 l114 0 -3 -92z m192 -3
l0 -95 -75 0 -75 0 0 88 c0 49 3 92 7 95 3 4 37 7 75 7 l68 0 0 -95z m298 -3
l3 -93 -138 3 -138 3 -3 79 c-2 44 -1 85 2 93 4 11 33 13 138 11 l133 -3 3
-93z m310 1 l3 -93 -146 0 -145 0 0 88 c0 49 3 92 7 96 4 3 68 5 142 4 l136
-3 3 -92z m156 51 c3 -26 6 -69 6 -95 l0 -49 -70 0 -70 0 0 88 c0 49 3 92 7
95 3 4 32 7 63 7 l57 0 7 -46z m-3329 -259 l0 -90 -147 -3 -148 -3 0 96 0 96
148 -3 147 -3 0 -90z m310 0 l0 -90 -142 -3 -143 -3 0 96 0 96 143 -3 142 -3
0 -90z m320 53 c4 -24 5 -65 3 -93 l-3 -50 -147 -3 -148 -3 0 96 0 95 144 0
145 0 6 -42z m1736 38 c2 -2 3 -38 1 -79 l-3 -75 -55 14 c-99 26 -337 63 -489
75 -309 25 -745 -2 -1037 -65 l-108 -22 0 78 0 78 843 0 c464 0 846 -2 848 -4z
m339 -91 l0 -95 -144 0 c-93 0 -147 4 -152 11 -3 6 -3 49 1 95 l7 84 144 0
144 0 0 -95z m310 0 l0 -95 -140 0 -140 0 0 95 0 95 140 0 140 0 0 -95z m322
8 c2 -49 3 -91 1 -95 -2 -5 -69 -8 -149 -8 l-144 0 0 95 0 95 144 0 144 0 4
-87z m-3482 -213 l0 -90 -80 0 -80 0 0 90 0 90 80 0 80 0 0 -90z m300 0 l0
-90 -135 0 -135 0 0 90 0 90 135 0 135 0 0 -90z m310 0 l0 -90 -145 0 -145 0
0 90 0 90 145 0 145 0 0 -90z m170 31 c0 -32 3 -73 6 -90 l7 -31 -82 0 -81 0
0 90 0 90 75 0 75 0 0 -59z m1930 -31 l0 -90 -80 0 -80 0 0 90 0 90 80 0 80 0
0 -90z m300 0 l0 -90 -140 0 -140 0 0 90 0 90 140 0 140 0 0 -90z m310 0 l0
-90 -145 0 -145 0 0 90 0 90 145 0 145 0 0 -90z m170 0 l0 -90 -75 0 -75 0 0
90 0 90 75 0 75 0 0 -90z m-3335 -205 l0 -90 -162 -3 -163 -2 0 27 c0 16 3 58
7 96 l6 67 156 -2 156 -3 0 -90z m310 0 l0 -90 -142 -3 -143 -3 0 96 0 96 143
-3 142 -3 0 -90z m323 -2 l3 -93 -151 0 -150 0 0 95 0 96 148 -3 147 -3 3 -92z
m2072 2 l0 -95 -160 0 -160 0 0 88 c0 49 3 92 7 95 3 4 75 7 160 7 l153 0 0
-95z m310 0 l0 -95 -140 0 -140 0 0 95 0 95 140 0 140 0 0 -95z m324 58 c3
-21 6 -64 6 -95 l0 -58 -150 0 -150 0 0 95 0 95 144 0 143 0 7 -37z m-3494
-268 l0 -95 -85 0 -85 0 0 95 0 95 85 0 85 0 0 -95z m300 0 l0 -95 -135 0
-135 0 0 95 0 95 135 0 135 0 0 -95z m310 0 l0 -96 -142 3 -143 3 -3 79 c-2
44 -1 85 2 93 4 10 38 13 146 13 l140 0 0 -95z m185 53 c4 -24 5 -65 3 -93
l-3 -50 -80 0 -80 0 -3 79 c-2 44 -1 85 2 93 4 9 27 13 80 13 l75 0 6 -42z
m1915 -53 l0 -95 -84 0 c-50 0 -88 4 -92 11 -3 6 -3 49 1 95 l7 84 84 0 84 0
0 -95z m298 3 l-3 -93 -135 0 -135 0 -3 79 c-2 44 -1 85 2 93 4 10 37 13 141
13 l136 0 -3 -92z m310 0 l-3 -93 -140 0 -140 0 -3 93 -3 92 146 0 146 0 -3
-92z m184 17 c1 -41 2 -83 2 -92 1 -16 -9 -18 -79 -18 l-80 0 -3 93 -3 92 81
0 80 0 2 -75z m-3344 -222 l-3 -88 -167 -3 -168 -2 0 90 0 90 170 0 171 0 -3
-87z m310 0 l-3 -88 -142 -3 -143 -3 0 91 0 90 145 0 146 0 -3 -87z m334 5 c3
-46 3 -86 1 -90 -2 -5 -74 -8 -159 -8 l-154 0 0 90 0 90 154 0 154 0 4 -82z
m2058 -8 l0 -90 -165 0 -165 0 0 90 0 90 165 0 165 0 0 -90z m310 0 l0 -90
-140 0 -140 0 0 90 0 90 140 0 140 0 0 -90z m340 0 l0 -90 -155 0 -155 0 0 90
0 90 155 0 155 0 0 -90z"/>
<path d="M2447 1578 c-76 -102 -407 -570 -407 -576 0 -4 64 -41 143 -83 1079
-577 2356 -818 3592 -678 669 75 1293 248 1897 524 180 83 448 224 448 238 0
5 -93 140 -207 300 -115 160 -211 295 -215 300 -4 6 -91 -33 -215 -95 -258
-132 -468 -220 -733 -308 -1355 -452 -2837 -335 -4107 325 -90 47 -166 85
-168 85 -2 0 -15 -15 -28 -32z m171 -165 c-7 -16 -17 -33 -24 -38 -6 -6 -25
-37 -42 -70 -40 -78 -78 -121 -124 -140 l-38 -15 43 63 c23 35 58 96 77 134
27 55 42 73 65 81 51 17 56 15 43 -15z m5138 -158 c-3 -8 -23 -23 -46 -35 -26
-13 -52 -39 -74 -73 -30 -47 -45 -58 -153 -114 -66 -35 -130 -63 -142 -63 -11
0 -21 -5 -21 -11 0 -11 -121 -69 -276 -133 l-92 -38 -4 -53 c-8 -96 -48 -125
-123 -90 -26 11 -27 13 -8 14 30 1 79 45 92 81 12 34 9 35 -49 15 -39 -14 -46
-14 -68 1 -22 15 -24 21 -20 75 8 106 64 128 135 53 l33 -35 142 61 c79 33
146 64 151 69 11 11 -104 22 -118 12 -17 -13 -60 3 -63 25 -5 37 13 61 103
137 89 75 90 76 93 49 3 -23 -7 -37 -64 -88 l-67 -62 89 -7 c49 -4 96 -11 105
-16 20 -10 267 119 288 151 l16 23 -61 -6 c-33 -3 -69 -9 -78 -13 -17 -7 -17
-5 -2 24 21 40 21 41 118 53 45 6 101 18 123 28 39 17 40 17 43 -1 2 -11 1
-26 -2 -33z m-5055 -72 c6 -16 8 -49 5 -74 l-6 -46 122 -61 c168 -85 193 -83
112 7 l-46 51 40 0 c36 0 45 -6 91 -56 27 -31 70 -71 95 -89 43 -30 44 -33 24
-42 -19 -8 -10 -14 70 -46 51 -20 96 -37 101 -37 6 0 11 16 13 36 2 24 10 42
25 51 21 14 23 13 29 -11 9 -37 -2 -71 -37 -110 l-30 -35 -67 25 c-165 62
-199 84 -186 118 8 20 -63 38 -114 30 -34 -5 -53 1 -156 54 l-117 61 -46 -30
c-31 -19 -60 -29 -85 -29 -36 0 -40 3 -58 42 -21 47 -19 59 7 36 26 -23 66
-29 102 -17 41 14 39 24 -9 49 -46 24 -60 58 -37 93 20 30 73 56 115 57 26 0
34 -5 43 -27z m3949 -315 c59 -41 74 -69 64 -125 l-9 -48 -92 -3 c-77 -2 -92
-5 -95 -20 -4 -13 -33 -26 -96 -46 -50 -15 -95 -25 -101 -22 -5 3 -11 2 -13
-4 -1 -5 -68 -25 -148 -44 -122 -30 -148 -33 -169 -23 -33 15 -46 54 -36 103
l8 39 8 -34 c12 -58 31 -61 159 -31 167 40 161 38 148 64 -8 19 -7 29 5 46 15
21 15 21 37 -14 12 -20 25 -36 30 -36 4 0 38 9 75 21 l67 20 34 77 c49 107 66
119 124 80z m-3089 -70 c7 -16 13 -46 14 -66 3 -37 3 -37 76 -59 93 -27 99
-27 99 -4 0 10 11 26 24 34 23 16 24 15 29 -24 3 -23 8 -43 11 -46 12 -12 252
-62 269 -57 17 5 17 8 -8 34 -15 16 -41 34 -57 41 -28 12 -29 13 -12 26 29 21
54 16 118 -26 34 -22 83 -50 109 -61 38 -17 46 -24 37 -35 -13 -16 -1 -21 80
-30 30 -3 68 -9 84 -12 l29 -5 -7 44 c-5 35 -3 48 10 59 14 11 18 11 30 -6 19
-26 17 -62 -6 -112 -22 -50 -19 -49 -161 -28 -114 17 -139 27 -139 55 0 17 -7
20 -39 20 -21 0 -54 -6 -72 -14 -30 -12 -45 -11 -134 9 -144 33 -185 45 -185
54 0 5 -10 7 -22 5 -13 -3 -59 6 -102 19 l-79 24 -37 -37 c-20 -20 -52 -42
-70 -48 -31 -11 -35 -10 -66 24 -38 40 -45 60 -15 44 32 -17 96 -12 122 9 l24
19 -30 11 c-57 20 -80 37 -83 59 -7 47 83 127 128 115 10 -3 24 -18 31 -35z
m2041 -198 c40 -11 92 -20 115 -20 44 0 50 -8 33 -41 -7 -12 -21 -19 -41 -19
-37 0 -97 -24 -125 -51 -16 -15 -44 -22 -110 -29 -124 -12 -198 -15 -211 -7
-7 4 -15 3 -18 -3 -4 -7 -49 -11 -118 -10 -307 3 -314 2 -321 -24 -3 -14 -21
-41 -40 -60 -43 -46 -81 -48 -120 -7 l-28 30 43 -2 c32 -1 53 5 77 21 51 37
57 56 31 102 -21 38 -22 42 -6 57 19 20 42 6 51 -32 6 -24 9 -25 97 -25 l91 0
-4 25 c-3 16 1 30 13 41 23 20 25 19 36 -26 l9 -35 69 -3 c95 -4 117 2 110 31
-4 15 0 29 13 40 18 16 19 16 32 -23 11 -34 18 -40 41 -40 62 0 234 22 253 32
20 11 18 13 -22 30 -23 10 -55 20 -71 21 l-30 2 21 23 c26 27 39 27 130 2z"/>
</g>
</svg>
